<svg width="19" height="19" viewBox="0 0 19 19" fill="none" xmlns="http://www.w3.org/2000/svg">
<path d="M17.9985 0.40179C17.1929 -0.26771 16.0539 -0.0814913 15.4526 0.818564L11.869 6.19894H16.4051L18.3716 3.24605C18.9708 2.34602 18.8042 1.07353 17.9985 0.40179Z" fill="#FB3D02"/>
<path d="M6.15719 17.4582C7.17514 17.8683 8.27644 18.09 9.42536 18.09C10.5743 18.09 11.6756 17.8683 12.6935 17.4582C16.045 16.1126 18.5056 12.7429 18.8469 8.62171C18.8945 8.05196 18.4897 7.55981 17.9778 7.55981H15.5252H10.991H0.872944C0.360989 7.55981 -0.043812 8.05196 0.00381168 8.62171C0.345115 12.7429 2.80567 16.1126 6.15719 17.4582Z" fill="#FB3D02"/>
</svg>
