<svg width="16" height="16" viewBox="0 0 16 16" fill="none" xmlns="http://www.w3.org/2000/svg">
<path d="M14.5024 13.0658L14.5024 13.0659C14.8752 13.9457 15.0736 14.8776 15.0937 15.8356L15.0937 15.8357C15.0941 15.8542 15.0909 15.8727 15.0841 15.8899C15.0773 15.9072 15.0672 15.9229 15.0542 15.9361C15.0413 15.9494 15.0258 15.9599 15.0088 15.9671C14.9917 15.9743 14.9734 15.978 14.9548 15.978H13.7488C13.6722 15.978 13.6117 15.9191 13.61 15.8427L13.61 15.8426C13.5696 14.2853 12.9442 12.8266 11.8387 11.7211C10.6949 10.5773 9.17573 9.94788 7.55784 9.94788C5.93995 9.94788 4.42079 10.5773 3.27698 11.7211C2.17149 12.8266 1.54607 14.2853 1.50572 15.8426L1.50572 15.8427C1.50399 15.9173 1.44327 15.978 1.36688 15.978H0.160854C0.14232 15.978 0.123978 15.9743 0.106905 15.9671C0.0898305 15.9599 0.074369 15.9494 0.0614312 15.9361C0.0484929 15.9229 0.03834 15.9072 0.0315709 15.8899C0.0248016 15.8727 0.0215529 15.8542 0.0220164 15.8357L0.0220188 15.8356C0.0404207 14.8837 0.241116 13.9442 0.61324 13.0679L0.61325 13.0679C0.992053 12.1727 1.54061 11.3594 2.22864 10.6728L2.22868 10.6728C2.92014 9.97933 3.7258 9.43622 4.62367 9.05743L4.62368 9.05747L4.62495 9.05684C4.62778 9.05542 4.63074 9.0543 4.6349 9.05273C4.63878 9.05128 4.64386 9.04939 4.64907 9.04679L4.68148 9.03058L4.65213 9.00934C3.40533 8.10676 2.59489 6.63989 2.59489 4.98492C2.59489 2.24329 4.81621 0.0219727 7.55784 0.0219727C10.2995 0.0219727 12.5208 2.24329 12.5208 4.98492C12.5208 6.63989 11.7103 8.10675 10.4636 9.00731L10.4342 9.02855L10.4666 9.04478C10.4718 9.04738 10.4769 9.04927 10.4808 9.05072C10.4826 9.05142 10.4843 9.05203 10.4857 9.05262C10.4876 9.05335 10.4892 9.05405 10.4907 9.05483L10.4907 9.05487L10.492 9.05541C11.3871 9.43421 12.2004 9.98277 12.887 10.6708L12.8871 10.6708C13.5757 11.3569 14.1244 12.1703 14.5024 13.0658ZM5.09808 7.44468C5.75546 8.10207 6.62939 8.46418 7.55784 8.46418C8.48629 8.46418 9.36021 8.10207 10.0176 7.44468C10.675 6.7873 11.0371 5.91337 11.0371 4.98492C11.0371 4.05648 10.675 3.18255 10.0176 2.52517C9.36021 1.86778 8.48629 1.50567 7.55784 1.50567C6.62939 1.50567 5.75546 1.86778 5.09808 2.52517C4.4407 3.18255 4.07858 4.05648 4.07858 4.98492C4.07858 5.91337 4.4407 6.7873 5.09808 7.44468Z" fill="#1F1F1F" stroke="#1F1F1F" stroke-width="0.0439453"/>
</svg>
