<svg width="80" height="80" viewBox="0 0 80 80" fill="none" xmlns="http://www.w3.org/2000/svg">
<path d="M35.424 24.62C34.6629 24.1981 33.8049 23.9822 32.9348 23.9936C32.0647 24.0049 31.2126 24.2431 30.4628 24.6847C29.7129 25.1263 29.0913 25.7559 28.6594 26.5113C28.2275 27.2667 28.0002 28.1218 28 28.992V51.008C28.0002 51.8782 28.2275 52.7333 28.6594 53.4887C29.0913 54.2441 29.7129 54.8737 30.4628 55.3153C31.2126 55.7569 32.0647 55.9951 32.9348 56.0064C33.8049 56.0178 34.6629 55.8019 35.424 55.38L58.452 42.624C58.9204 42.3644 59.3108 41.9842 59.5826 41.5227C59.8545 41.0613 59.9978 40.5355 59.9978 40C59.9978 39.4645 59.8545 38.9387 59.5826 38.4773C59.3108 38.0158 58.9204 37.6356 58.452 37.376L35.424 24.62ZM40 0C17.908 0 0 17.908 0 40C0 62.092 17.908 80 40 80C62.092 80 80 62.092 80 40C80 17.908 62.092 0 40 0ZM6 40C6 30.9826 9.58213 22.3346 15.9584 15.9584C22.3346 9.58213 30.9826 6 40 6C49.0174 6 57.6654 9.58213 64.0416 15.9584C70.4179 22.3346 74 30.9826 74 40C74 49.0174 70.4179 57.6654 64.0416 64.0416C57.6654 70.4179 49.0174 74 40 74C30.9826 74 22.3346 70.4179 15.9584 64.0416C9.58213 57.6654 6 49.0174 6 40Z" fill="white"/>
</svg>
