<svg width="16" height="16" viewBox="0 0 16 16" fill="none" xmlns="http://www.w3.org/2000/svg">
<mask id="path-1-inside-1" fill="white">
<path d="M15.7372 14.4753L12.7159 11.463C13.6907 10.2211 14.2196 8.68756 14.2176 7.10882C14.2176 5.70283 13.8007 4.32841 13.0196 3.15937C12.2385 1.99033 11.1282 1.07918 9.82925 0.54113C8.53028 0.00308013 7.10094 -0.137698 5.72196 0.136597C4.34299 0.410893 3.07631 1.08794 2.08213 2.08213C1.08794 3.07631 0.410893 4.34299 0.136597 5.72196C-0.137698 7.10094 0.00308013 8.53028 0.54113 9.82925C1.07918 11.1282 1.99033 12.2385 3.15937 13.0196C4.32841 13.8007 5.70283 14.2176 7.10882 14.2176C8.68756 14.2196 10.2211 13.6907 11.463 12.7159L14.4753 15.7372C14.5579 15.8204 14.6562 15.8865 14.7645 15.9317C14.8728 15.9768 14.9889 16 15.1062 16C15.2236 16 15.3397 15.9768 15.448 15.9317C15.5563 15.8865 15.6545 15.8204 15.7372 15.7372C15.8204 15.6545 15.8865 15.5563 15.9317 15.448C15.9768 15.3397 16 15.2236 16 15.1062C16 14.9889 15.9768 14.8728 15.9317 14.7645C15.8865 14.6562 15.8204 14.5579 15.7372 14.4753ZM1.77721 7.10882C1.77721 6.05433 2.0899 5.02352 2.67575 4.14674C3.26159 3.26996 4.09428 2.58659 5.0685 2.18305C6.04273 1.77952 7.11474 1.67393 8.14897 1.87965C9.1832 2.08538 10.1332 2.59316 10.8788 3.3388C11.6245 4.08444 12.1323 5.03444 12.338 6.06868C12.5437 7.10291 12.4381 8.17492 12.0346 9.14914C11.6311 10.1234 10.9477 10.9561 10.0709 11.5419C9.19413 12.1277 8.16332 12.4404 7.10882 12.4404C5.69479 12.4404 4.33867 11.8787 3.3388 10.8788C2.33893 9.87897 1.77721 8.52285 1.77721 7.10882Z"/>
</mask>
<path d="M15.7372 14.4753L14.4133 15.8031L14.4168 15.8066L15.7372 14.4753ZM12.7159 11.463L11.241 10.3053L10.2129 11.6151L11.392 12.7908L12.7159 11.463ZM14.2176 7.10882H12.3426L12.3426 7.11115L14.2176 7.10882ZM7.10882 14.2176L7.11115 12.3426H7.10882V14.2176ZM11.463 12.7159L12.7908 11.392L11.6151 10.2129L10.3053 11.241L11.463 12.7159ZM14.4753 15.7372L15.8066 14.4168L15.8031 14.4133L14.4753 15.7372ZM15.7372 15.7372L14.4168 14.4059L14.4113 14.4113L14.4059 14.4168L15.7372 15.7372ZM1.77721 7.10882H-0.0977918H1.77721ZM7.10882 12.4404V14.3154V12.4404ZM17.061 13.1476L14.0398 10.1352L11.392 12.7908L14.4133 15.8031L17.061 13.1476ZM14.1908 12.6207C15.4253 11.048 16.0951 9.10584 16.0926 7.10649L12.3426 7.11115C12.3441 8.26929 11.9561 9.39427 11.241 10.3053L14.1908 12.6207ZM16.0926 7.10882C16.0926 5.33199 15.5657 3.59506 14.5786 2.11768L11.4606 4.20107C12.0357 5.06177 12.3426 6.07367 12.3426 7.10882H16.0926ZM14.5786 2.11768C13.5914 0.640299 12.1884 -0.51118 10.5468 -1.19114L9.11172 2.2734C10.0681 2.66954 10.8855 3.34037 11.4606 4.20107L14.5786 2.11768ZM10.5468 -1.19114C8.9052 -1.87111 7.09886 -2.04902 5.35617 -1.70238L6.08776 1.97557C7.10302 1.77362 8.15536 1.87727 9.11172 2.2734L10.5468 -1.19114ZM5.35617 -1.70238C3.61348 -1.35573 2.01271 -0.500107 0.756303 0.756303L3.40795 3.40795C4.13992 2.67599 5.07249 2.17752 6.08776 1.97557L5.35617 -1.70238ZM0.756303 0.756303C-0.500107 2.01271 -1.35573 3.61348 -1.70238 5.35617L1.97557 6.08776C2.17752 5.07249 2.67599 4.13992 3.40795 3.40795L0.756303 0.756303ZM-1.70238 5.35617C-2.04902 7.09886 -1.87111 8.9052 -1.19114 10.5468L2.2734 9.11172C1.87727 8.15536 1.77362 7.10302 1.97557 6.08776L-1.70238 5.35617ZM-1.19114 10.5468C-0.51118 12.1884 0.640299 13.5914 2.11768 14.5786L4.20107 11.4606C3.34037 10.8855 2.66954 10.0681 2.2734 9.11172L-1.19114 10.5468ZM2.11768 14.5786C3.59506 15.5657 5.33199 16.0926 7.10882 16.0926V12.3426C6.07367 12.3426 5.06177 12.0357 4.20107 11.4606L2.11768 14.5786ZM7.10649 16.0926C9.10584 16.0951 11.048 15.4253 12.6207 14.1908L10.3053 11.241C9.39427 11.9561 8.26929 12.3441 7.11115 12.3426L7.10649 16.0926ZM10.1352 14.0398L13.1476 17.061L15.8031 14.4133L12.7908 11.392L10.1352 14.0398ZM13.1441 17.0575C13.401 17.3165 13.7066 17.5222 14.0434 17.6625L15.4856 14.2009C15.6058 14.2509 15.7149 14.3243 15.8066 14.4168L13.1441 17.0575ZM14.0434 17.6625C14.3802 17.8028 14.7414 17.875 15.1062 17.875V14.125C15.2365 14.125 15.3654 14.1508 15.4856 14.2009L14.0434 17.6625ZM15.1062 17.875C15.4711 17.875 15.8323 17.8028 16.1691 17.6625L14.7269 14.2009C14.8471 14.1508 14.976 14.125 15.1062 14.125V17.875ZM16.1691 17.6625C16.5058 17.5222 16.8115 17.3165 17.0684 17.0575L14.4059 14.4168C14.4976 14.3243 14.6067 14.2509 14.7269 14.2009L16.1691 17.6625ZM17.0575 17.0684C17.3165 16.8115 17.5222 16.5058 17.6625 16.1691L14.2009 14.7269C14.2509 14.6067 14.3243 14.4976 14.4168 14.4059L17.0575 17.0684ZM17.6625 16.1691C17.8028 15.8323 17.875 15.4711 17.875 15.1062H14.125C14.125 14.976 14.1508 14.8471 14.2009 14.7269L17.6625 16.1691ZM17.875 15.1062C17.875 14.7414 17.8028 14.3802 17.6625 14.0434L14.2009 15.4856C14.1508 15.3654 14.125 15.2365 14.125 15.1062H17.875ZM17.6625 14.0434C17.5222 13.7066 17.3165 13.401 17.0575 13.1441L14.4168 15.8066C14.3243 15.7149 14.2509 15.6058 14.2009 15.4856L17.6625 14.0434ZM3.65221 7.10882C3.65221 6.42517 3.85493 5.75687 4.23475 5.18843L1.11674 3.10504C0.324869 4.29016 -0.0977918 5.68349 -0.0977918 7.10882H3.65221ZM4.23475 5.18843C4.61457 4.61999 5.15442 4.17695 5.78603 3.91533L4.35097 0.450779C3.03413 0.99623 1.90861 1.91992 1.11674 3.10504L4.23475 5.18843ZM5.78603 3.91533C6.41765 3.6537 7.11266 3.58525 7.78317 3.71863L8.51476 0.0406812C7.11682 -0.237388 5.66781 -0.0946727 4.35097 0.450779L5.78603 3.91533ZM7.78317 3.71863C8.45369 3.852 9.0696 4.18121 9.55302 4.66463L12.2047 2.01298C11.1968 1.00511 9.91271 0.31875 8.51476 0.0406812L7.78317 3.71863ZM9.55302 4.66463C10.0364 5.14804 10.3656 5.76395 10.499 6.43447L14.177 5.70288C13.8989 4.30494 13.2125 3.02084 12.2047 2.01298L9.55302 4.66463ZM10.499 6.43447C10.6324 7.10499 10.5639 7.8 10.3023 8.43161L13.7669 9.86668C14.3123 8.54984 14.455 7.10083 14.177 5.70288L10.499 6.43447ZM10.3023 8.43161C10.0407 9.06323 9.59765 9.60308 9.02922 9.98289L11.1126 13.1009C12.2977 12.309 13.2214 11.1835 13.7669 9.86668L10.3023 8.43161ZM9.02922 9.98289C8.46078 10.3627 7.79248 10.5654 7.10882 10.5654V14.3154C8.53416 14.3154 9.92748 13.8928 11.1126 13.1009L9.02922 9.98289ZM7.10882 10.5654C6.19207 10.5654 5.31287 10.2013 4.66463 9.55302L2.01298 12.2047C3.36448 13.5562 5.19751 14.3154 7.10882 14.3154V10.5654ZM4.66463 9.55302C4.01639 8.90478 3.65221 8.02557 3.65221 7.10882H-0.0977918C-0.0977918 9.02014 0.661474 10.8532 2.01298 12.2047L4.66463 9.55302Z" fill="#1F1F1F" mask="url(#path-1-inside-1)"/>
</svg>
